<?xml version="1.0" encoding="utf-8"?>
<!-- Generator: Adobe Illustrator 22.0.1, SVG Export Plug-In . SVG Version: 6.00 Build 0)  -->
<svg version="1.1" id="Layer_1" xmlns="http://www.w3.org/2000/svg" xmlns:xlink="http://www.w3.org/1999/xlink" x="0px" y="0px"
	 viewBox="0 0 276.5 75.3" style="enable-background:new 0 0 276.5 75.3;" xml:space="preserve">
<style type="text/css">
	.st0{clip-path:url(#SVGID_2_);}
	.st1{clip-path:url(#SVGID_4_);fill:#231F20;}
	.st2{fill:#231F20;}
	.st3{font-family:'BaskOldFace';}
	.st4{font-size:51.0461px;}
	.st5{font-size:18.3382px;}
	.st6{letter-spacing:0.9;}
</style>
<g>
	<defs>
		<rect id="SVGID_1_" x="0.5" y="0.3" width="62.9" height="75.1"/>
	</defs>
	<clipPath id="SVGID_2_">
		<use xlink:href="#SVGID_1_"  style="overflow:visible;"/>
	</clipPath>
	<g class="st0">
		<defs>
			<rect id="SVGID_3_" x="0.5" y="0.3" width="62.9" height="75.1"/>
		</defs>
		<clipPath id="SVGID_4_">
			<use xlink:href="#SVGID_3_"  style="overflow:visible;"/>
		</clipPath>
		<path class="st1" d="M61.3,30.3c-2.1-5.4-8.2-9.7-12.2-8.6c-1.6,0.5-3.2,2-3.3,2c-0.7,0.7-2.1,2.1-2.3,3.5
			c0.5,0.6,0.9,1.4,1.1,2.2c2.2,1.5,6.8,2.1,8.3,5.5c1.8,4-1.4,9.2-2.4,10.7c-2.6,4.1-5.6,5.3-5.3,5.8c0.5,0.8,9.8-0.9,14.4-8.1
			C60.4,42.2,63.7,36.5,61.3,30.3z"/>
		<path class="st1" d="M47.2,18c0.2,1.2,0.1,1.7,0,2.2c-0.4,1.3-1.3,2.1-2.7,3.2c-1.7,1.3-2.6,2.1-3.3,1.8c-0.9-0.3-0.8-1.8-1.6-4
			c-0.2-0.6-1.2-3.3-3.4-5.2c-2.8-2.5-6.4-2.7-7.4-2.7c-1,0-5.4,0-8.3,3c-2.8,2.9-1.9,6.5-4.7,7.6c-1.1,0.4-2.7,0.4-3,0.4
			c-0.9,0-2-0.1-2.8-0.8c-0.2-0.1-0.6-0.6-0.8-1c-0.2-0.3-0.3-0.6-0.3-0.6c0,0-0.1-0.2-0.1-0.4c-0.1-0.3-0.1-0.6-0.1-0.9
			c0-0.4,0-0.6,0-0.9c0-0.7-0.1-1.2-0.1-1.3c-0.1-0.7,0.1-6.7,3-11c4.1-6,14-8.7,22-6.1c0,0,8.2,2.7,12.3,11.6
			C46.3,14,46.9,15.9,47.2,18"/>
		<path class="st1" d="M38.9,48.4c1.3-3.9,3.6-6.9,3.3-7.1c0,0-0.1,0-0.2,0c0,0-0.1,0-0.1,0c-0.8,0.4-2.9,2.4-4.7,4.9
			c-0.8,1.1-1.6,2.2-2.2,3.7c-0.9,2.2-0.7,3.6-0.5,7.9c0.1,5.2-0.1,6.8,0.4,10.9c0.4,3.4,0.9,4.6,1.9,5.2c1.7,1,4.6,0.2,4.9-0.8
			c0.1-0.5-0.4-0.7-1.1-1.9c-0.6-0.9-0.8-1.6-1.4-3.1c-0.9-2.6-1.1-5.9-1.3-10c-0.2-3.9-0.1-5.8,0.5-7.9
			C38.6,49.4,38.8,48.8,38.9,48.4z"/>
		<path class="st1" d="M33.6,30c-0.5,1.5-1.2,3.8-1.7,6.6c-0.5,3-0.8,5.8-0.2,15.7c0.3,5.9-0.8,12,0.4,17.8c0.1,0.3,0.8,3.7-0.5,4.4
			c-0.3,0.2-0.5,0-2.2,0.1c-1.3,0.1-1.6,0.1-1.9-0.1c-0.6-0.4-0.5-1.4-0.4-2.2c0.1-1.7-0.2-3.4-0.1-5c0.1-2.3-0.8-4-2.5-7.4
			c-2.3-4.5-4.5-6.3-10.3-14.5c-0.5-0.8-1.9-2.7-1.6-2.9c0.7-0.5,10,11.3,13.5,9.6c1.6-0.7,0.9-3.7,1.7-8.2
			C28.7,37.7,31.5,33,33.6,30"/>
		<path class="st1" d="M16.8,26.8c1.6,0.7,4.2,2.6,3.9,4.3c-0.5,2.8-7.7,1.7-10.4,6c-2.4,3.8,0.2,9.3,0.9,10.9c2,4.3,4.9,6,4.5,6.5
			c-0.6,0.7-9.4-2.2-13.2-9.9c-0.7-1.5-4.3-8.8,0-14.3C5.8,26.2,12.4,24.7,16.8,26.8"/>
	</g>
</g>
<text transform="matrix(1.1002 7.371072e-04 -6.700000e-04 1 72.1981 44.1404)" class="st2 st3 st4">SAVIRA</text>
<text transform="matrix(1.1693 0 0 1 127.75 66.9717)" class="st2 st3 st5 st6">est. 1992</text>
</svg>
